# Blender v2.79 (sub 6) OBJ File: ''
# www.blender.org
mtllib RockPackByPava.mtl
o rock.006
v 0.264744 0.101758 0.062264
v 0.283671 -0.014575 0.307373
v 0.403173 0.023900 0.051255
v 0.281613 0.175519 -0.107602
v 0.521435 -0.393142 0.138400
v 0.584138 -0.267406 -0.014212
v 0.553166 -0.229704 0.136940
v 0.247309 -0.401475 0.299985
v 0.344577 -0.165370 0.352839
v 0.513408 -0.120061 -0.201148
v 0.520236 -0.063386 -0.065297
v 0.534185 -0.393245 -0.158715
v 0.487360 -0.542044 -0.047661
v 0.336158 -0.500376 -0.236335
v 0.492690 -0.233298 -0.232066
v -0.003187 0.200184 -0.375466
v 0.254718 0.203709 -0.238207
v 0.110387 -0.049641 -0.279489
v 0.256596 -0.226488 -0.320493
v 0.318256 0.099899 -0.221100
v -0.035671 -0.226439 -0.413296
v -0.134780 -0.091277 -0.461198
v -0.321154 -0.155612 -0.376989
v -0.279285 0.050026 -0.352035
v -0.414639 0.067543 -0.218711
v 0.086683 -0.376714 -0.370844
v -0.054893 -0.326459 -0.340034
v -0.265820 0.319072 -0.273674
v 0.060403 0.051608 0.512045
v 0.190859 0.165187 0.261303
v 0.158950 0.383004 0.176949
v 0.014936 0.507310 0.264879
v -0.046765 0.373197 0.398584
v -0.264401 0.472667 0.295865
v -0.314504 0.356571 0.316696
v 0.004199 -0.189444 0.563933
v -0.194896 -0.118996 0.474198
v -0.095080 -0.336670 0.544278
v -0.437069 -0.211881 0.301424
v -0.221259 0.061776 0.397540
v -0.264709 -0.447468 0.417357
v 0.102456 0.528853 -0.098207
v 0.124496 0.362932 -0.288961
v -0.386442 0.387441 -0.167271
v -0.350683 0.542326 0.077178
v -0.216619 0.566095 -0.136197
v -0.053884 0.528773 -0.193348
v -0.149515 0.413290 -0.274428
v 0.048564 0.579997 0.110340
v -0.175555 0.571522 0.211279
v -0.450333 0.433847 0.088695
v -0.488017 0.286500 0.167186
v 0.265116 -0.641320 0.064763
v 0.298126 -0.551333 0.177828
v 0.071471 -0.667281 0.141782
v -0.018832 -0.552307 0.347911
v -0.300418 -0.548024 0.184533
v -0.164716 -0.557387 -0.053338
v 0.049207 -0.608719 -0.095945
v -0.516266 -0.359835 0.151246
v -0.379330 -0.465685 -0.004074
v 0.105985 -0.497078 -0.291171
v -0.227570 -0.301014 -0.272149
v -0.520084 -0.171045 -0.106243
v -0.542896 0.073517 0.056750
v -0.482336 -0.278951 -0.160682
v -0.559108 -0.062466 0.132413
v -0.421523 0.020143 0.240137
v -0.473174 0.370615 -0.045856
v -0.491583 0.175400 -0.093481
v 0.487374 -0.096367 0.172182
v -0.110156 0.600159 -0.043968
vn 0.4808 0.8060 0.3454
vn 0.4748 0.7891 0.3898
vn 0.9532 -0.1829 0.2409
vn 0.4792 -0.3750 0.7936
vn 0.9531 0.2594 -0.1561
vn 0.9399 0.0185 -0.3410
vn 0.9439 -0.3276 -0.0410
vn 0.4722 -0.2633 -0.8413
vn 0.4675 -0.1237 -0.8753
vn 0.4986 0.1649 -0.8510
vn 0.3367 0.2155 -0.9166
vn 0.5750 0.1357 -0.8068
vn -0.4597 0.1986 -0.8656
vn -0.6694 0.2223 -0.7088
vn -0.3515 -0.5083 -0.7862
vn -0.2373 -0.5439 -0.8049
vn -0.2248 -0.4678 -0.8548
vn -0.2847 0.3866 -0.8772
vn -0.6655 0.2392 -0.7070
vn 0.7705 0.3252 0.5482
vn 0.7018 0.3925 0.5945
vn 0.5674 0.4356 0.6988
vn 0.9324 0.2409 0.2694
vn -0.2963 0.2911 0.9097
vn -0.2282 0.2554 0.9395
vn -0.3700 0.1266 0.9204
vn -0.6218 0.2271 0.7495
vn -0.5758 -0.0191 0.8174
vn -0.5935 -0.0131 0.8047
vn 0.6725 0.4490 0.5884
vn 0.8521 0.4396 -0.2839
vn 0.8911 0.4504 0.0558
vn -0.6532 0.6792 -0.3348
vn 0.0553 0.5427 -0.8381
vn 0.1692 0.8772 0.4494
vn -0.6332 0.6295 0.4503
vn -0.6998 0.4669 0.5406
vn 0.3169 -0.7850 0.5323
vn 0.3040 -0.7691 0.5622
vn 0.5681 -0.6902 0.4483
vn -0.3172 -0.9374 -0.1440
vn -0.2670 -0.9412 -0.2069
vn -0.2401 -0.8887 0.3905
vn -0.6509 -0.7569 -0.0581
vn -0.2965 -0.7893 -0.5376
vn -0.3580 -0.6554 -0.6650
vn -0.4221 -0.6462 -0.6359
vn -0.3601 -0.5544 -0.7503
vn 0.0999 -0.8760 -0.4719
vn 0.4066 -0.1583 -0.8998
vn 0.1908 -0.5204 -0.8324
vn -0.8874 0.1954 -0.4174
vn -0.3412 -0.6843 -0.6444
vn -0.8428 -0.0878 0.5310
vn -0.7438 -0.2365 0.6252
vn -0.6394 -0.6653 0.3854
vn -0.6350 0.0526 0.7707
vn -0.9630 0.2666 0.0382
vn -0.8964 -0.1589 -0.4139
vn -0.5920 0.1786 -0.7859
vn 0.7025 0.6852 0.1924
vn 0.5463 0.7524 0.3679
vn 0.7279 0.6191 -0.2948
vn 0.7096 0.6702 -0.2175
vn 0.6851 0.7118 0.1551
vn 0.9399 0.3225 0.1122
vn 0.9002 0.3967 0.1797
vn 0.9342 -0.3417 0.1023
vn 0.4608 -0.4616 0.7580
vn 0.6124 0.4445 0.6538
vn 0.7338 0.1896 0.6524
vn 0.6938 -0.1284 0.7086
vn 0.8556 -0.0153 -0.5174
vn 0.3493 0.1868 -0.9182
vn 0.5989 -0.0351 -0.8000
vn -0.0484 0.1874 -0.9811
vn 0.8559 0.5130 -0.0655
vn 0.4663 0.1013 -0.8788
vn 0.7777 0.6282 -0.0246
vn 0.2738 0.4263 -0.8621
vn 0.3026 -0.0228 -0.9529
vn -0.3516 -0.6858 -0.6373
vn 0.4923 -0.3988 0.7737
vn 0.0349 0.4476 -0.8936
vn -0.2330 0.2821 -0.9307
vn 0.6640 0.4880 0.5665
vn 0.8587 0.4854 0.1641
vn 0.9403 0.2681 0.2098
vn -0.6203 0.0189 0.7842
vn -0.2978 0.1637 0.9405
vn -0.3275 0.2390 0.9141
vn -0.4977 0.2761 0.8222
vn -0.6303 0.2375 0.7391
vn 0.5229 0.0611 0.8502
vn -0.4008 0.5052 -0.7643
vn 0.4282 -0.5210 0.7384
vn 0.2767 0.9474 -0.1608
vn 0.2150 0.9102 -0.3540
vn 0.0645 0.9096 -0.4104
vn 0.3580 0.7246 -0.5889
vn 0.7263 0.5475 0.4156
vn 0.8543 0.5110 0.0954
vn -0.2600 0.9640 -0.0560
vn -0.6255 0.6972 -0.3502
vn -0.7336 0.6545 -0.1830
vn -0.1218 0.6359 -0.7621
vn -0.0042 0.6852 0.7284
vn -0.2063 0.9768 0.0567
vn 0.0143 0.9933 0.1151
vn 0.1800 -0.9065 -0.3819
vn -0.4581 0.7786 0.4288
vn -0.6852 0.4044 0.6057
vn 0.0337 -0.9697 -0.2420
vn 0.4143 -0.4865 0.7692
vn 0.5392 -0.7286 0.4225
vn -0.4242 -0.8815 -0.2073
vn -0.0898 -0.6877 0.7204
vn -0.2547 -0.8729 0.4161
vn -0.4438 -0.6072 -0.6591
vn 0.5520 -0.6033 -0.5756
vn 0.3400 -0.1846 -0.9221
vn -0.9538 -0.2488 -0.1683
vn -0.8055 0.0791 -0.5873
vn -0.8062 0.0163 -0.5914
vn -0.3340 -0.7070 -0.6234
vn -0.9850 0.0222 -0.1712
vn -0.9846 -0.1478 -0.0938
vn -0.6817 0.2292 0.6948
vn -0.7499 -0.6160 -0.2413
vn -0.9745 0.1860 0.1255
vn -0.9455 0.3041 -0.1167
vn -0.9945 0.1010 -0.0294
vn -0.6615 0.0400 0.7489
vn -0.8091 0.2102 -0.5488
vn -0.7694 0.1670 -0.6165
usemtl None
s off
f 1//1 2//1 3//1
f 1//2 3//2 4//2
f 5//3 6//3 7//3
f 8//4 5//4 9//4
f 10//5 11//5 6//5
f 6//6 12//6 10//6
f 12//7 6//7 13//7
f 14//8 15//8 12//8
f 16//9 17//9 18//9
f 19//10 17//10 20//10
f 20//11 10//11 19//11
f 21//12 22//12 18//12
f 23//13 24//13 22//13
f 25//14 24//14 23//14
f 21//15 26//15 27//15
f 21//16 27//16 23//16
f 23//17 22//17 21//17
f 22//18 24//18 16//18
f 24//19 25//19 28//19
f 29//20 30//20 31//20
f 31//21 32//21 29//21
f 29//22 32//22 33//22
f 30//23 1//23 31//23
f 33//24 34//24 35//24
f 36//25 29//25 33//25
f 37//26 38//26 36//26
f 39//27 37//27 40//27
f 41//28 37//28 39//28
f 41//29 38//29 37//29
f 9//30 2//30 29//30
f 42//31 4//31 43//31
f 31//32 4//32 42//32
f 44//33 45//33 46//33
f 47//34 43//34 48//34
f 32//35 49//35 50//35
f 34//36 45//36 51//36
f 51//37 52//37 34//37
f 53//38 54//38 55//38
f 56//39 55//39 54//39
f 54//40 13//40 5//40
f 57//41 58//41 55//41
f 58//42 59//42 55//42
f 55//43 56//43 57//43
f 60//44 61//44 57//44
f 58//45 62//45 59//45
f 27//46 58//46 63//46
f 58//47 61//47 63//47
f 27//48 26//48 62//48
f 62//49 14//49 59//49
f 26//50 19//50 14//50
f 62//51 26//51 14//51
f 64//52 65//52 25//52
f 66//53 23//53 63//53
f 39//54 67//54 60//54
f 60//55 41//55 39//55
f 41//56 60//56 57//56
f 67//57 68//57 52//57
f 52//58 51//58 69//58
f 25//59 65//59 70//59
f 44//60 28//60 25//60
f 11//61 3//61 71//61
f 2//62 71//62 3//62
f 11//63 10//63 20//63
f 11//64 20//64 4//64
f 11//65 4//65 3//65
f 7//66 6//66 11//66
f 11//67 71//67 7//67
f 5//68 13//68 6//68
f 5//69 8//69 54//69
f 71//70 2//70 9//70
f 9//71 7//71 71//71
f 9//72 5//72 7//72
f 10//73 12//73 15//73
f 15//74 19//74 10//74
f 16//75 18//75 22//75
f 19//76 18//76 17//76
f 17//77 4//77 20//77
f 17//78 16//78 43//78
f 43//79 4//79 17//79
f 21//80 18//80 19//80
f 19//81 26//81 21//81
f 23//82 27//82 63//82
f 8//83 9//83 36//83 38//83
f 48//84 43//84 16//84
f 28//85 48//85 16//85 24//85
f 2//86 30//86 29//86
f 2//87 1//87 30//87
f 31//88 1//88 4//88
f 40//89 35//89 68//89
f 35//90 40//90 33//90
f 37//91 36//91 33//91
f 33//92 40//92 37//92
f 40//93 68//93 39//93
f 29//94 36//94 9//94
f 46//95 48//95 28//95 44//95
f 38//96 56//96 8//96
f 72//97 49//97 42//97
f 42//98 47//98 72//98
f 47//99 46//99 72//99
f 47//100 42//100 43//100
f 49//101 32//101 31//101
f 31//102 42//102 49//102
f 46//103 45//103 72//103
f 44//104 69//104 45//104
f 69//105 51//105 45//105
f 48//106 46//106 47//106
f 32//107 50//107 34//107 33//107
f 45//108 50//108 72//108
f 50//109 49//109 72//109
f 13//110 53//110 59//110 14//110
f 34//111 50//111 45//111
f 34//112 52//112 35//112
f 55//113 59//113 53//113
f 54//114 8//114 56//114
f 54//115 53//115 13//115
f 57//116 61//116 58//116
f 56//117 38//117 41//117
f 41//118 57//118 56//118
f 27//119 62//119 58//119
f 14//120 12//120 13//120
f 14//121 19//121 15//121
f 66//122 60//122 64//122
f 23//123 64//123 25//123
f 23//124 66//124 64//124
f 66//125 63//125 61//125
f 67//126 65//126 64//126
f 67//127 64//127 60//127
f 39//128 68//128 67//128
f 66//129 61//129 60//129
f 67//130 52//130 65//130
f 65//131 52//131 70//131
f 69//132 70//132 52//132
f 35//133 52//133 68//133
f 44//134 70//134 69//134
f 44//135 25//135 70//135
